<svg width="394" height="421" viewBox="0 0 394 421" fill="none" xmlns="http://www.w3.org/2000/svg">
<g filter="url(#filter0_d_41_158)">
<path d="M334.235 53.644H59.8482C40.5438 53.644 24.8945 69.3074 24.8945 88.6292V358.015C24.8945 377.337 40.5438 393 59.8482 393H334.235C353.539 393 369.188 377.337 369.188 358.015V88.6292C369.188 69.3074 353.539 53.644 334.235 53.644Z" fill="white"/>
<path d="M334.235 53.644H59.8482C40.5438 53.644 24.8945 69.3074 24.8945 88.6292V358.015C24.8945 377.337 40.5438 393 59.8482 393H334.235C353.539 393 369.188 377.337 369.188 358.015V88.6292C369.188 69.3074 353.539 53.644 334.235 53.644Z" fill="white" stroke="#898989" stroke-width="40" stroke-linejoin="round"/>
</g>
<path d="M119.338 170H74.6623C64.9077 170 57 177.835 57 187.5C57 197.165 64.9077 205 74.6623 205H119.338C129.092 205 137 197.165 137 187.5C137 177.835 129.092 170 119.338 170Z" fill="#BDC3C7"/>
<path d="M218.338 170H173.662C163.908 170 156 177.835 156 187.5C156 197.165 163.908 205 173.662 205H218.338C228.092 205 236 197.165 236 187.5C236 177.835 228.092 170 218.338 170Z" fill="#BDC3C7"/>
<path d="M219.338 306H174.662C164.908 306 157 313.835 157 323.5C157 333.165 164.908 341 174.662 341H219.338C229.092 341 237 333.165 237 323.5C237 313.835 229.092 306 219.338 306Z" fill="#BDC3C7"/>
<path d="M218.338 238H173.662C163.908 238 156 245.835 156 255.5C156 265.165 163.908 273 173.662 273H218.338C228.092 273 236 265.165 236 255.5C236 245.835 228.092 238 218.338 238Z" fill="#BDC3C7"/>
<path d="M319.338 238H274.662C264.908 238 257 245.835 257 255.5C257 265.165 264.908 273 274.662 273H319.338C329.092 273 337 265.165 337 255.5C337 245.835 329.092 238 319.338 238Z" fill="#BDC3C7"/>
<path d="M319.338 306H274.662C264.908 306 257 313.835 257 323.5C257 333.165 264.908 341 274.662 341H319.338C329.092 341 337 333.165 337 323.5C337 313.835 329.092 306 319.338 306Z" fill="#BDC3C7"/>
<path d="M319.338 170H274.662C264.908 170 257 177.835 257 187.5C257 197.165 264.908 205 274.662 205H319.338C329.092 205 337 197.165 337 187.5C337 177.835 329.092 170 319.338 170Z" fill="#BDC3C7"/>
<path d="M119.338 306H74.6623C64.9077 306 57 314.73 57 325.5C57 336.27 64.9077 345 74.6623 345H119.338C129.092 345 137 336.27 137 325.5C137 314.73 129.092 306 119.338 306Z" fill="#BDC3C7"/>
<path d="M119.338 238H74.6623C64.9077 238 57 245.835 57 255.5C57 265.165 64.9077 273 74.6623 273H119.338C129.092 273 137 265.165 137 255.5C137 245.835 129.092 238 119.338 238Z" fill="#BDC3C7"/>
<path d="M369 116H25V141H369V116Z" fill="#898989"/>
<path d="M369 67H26V123H369V67Z" fill="#898989"/>
<path d="M5 91C5 57.8629 31.8629 31 65 31H329C362.137 31 389 57.8629 389 91V116H5V91Z" fill="#E74C3C"/>
<defs>
<filter id="filter0_d_41_158" x="0.894531" y="33.644" width="392.294" height="387.356" filterUnits="userSpaceOnUse" color-interpolation-filters="sRGB">
<feFlood flood-opacity="0" result="BackgroundImageFix"/>
<feColorMatrix in="SourceAlpha" type="matrix" values="0 0 0 0 0 0 0 0 0 0 0 0 0 0 0 0 0 0 127 0" result="hardAlpha"/>
<feOffset dy="4"/>
<feGaussianBlur stdDeviation="2"/>
<feComposite in2="hardAlpha" operator="out"/>
<feColorMatrix type="matrix" values="0 0 0 0 0 0 0 0 0 0 0 0 0 0 0 0 0 0 0.25 0"/>
<feBlend mode="normal" in2="BackgroundImageFix" result="effect1_dropShadow_41_158"/>
<feBlend mode="normal" in="SourceGraphic" in2="effect1_dropShadow_41_158" result="shape"/>
</filter>
</defs>
</svg>
