<svg width="613" height="474" fill="none" xmlns="http://www.w3.org/2000/svg">
  <path d="M290.531 226.812a101.171 101.171 0 1 0 202.343 0 101.171 101.171 0 0 0-202.343 0Z" fill="#FFE902"/>
  <path d="M391.703 348.531c-67.109 0-121.719-54.609-121.719-121.719 0-67.109 54.61-121.718 121.719-121.718 67.11 0 121.719 54.609 121.719 121.718 0 67.11-54.609 121.719-121.719 121.719Zm0-202.265c-44.375 0-80.547 36.093-80.547 80.546 0 44.454 36.172 80.547 80.547 80.547s80.469-36.171 80.469-80.625c0-44.453-36.094-80.468-80.469-80.468ZM298.266 28.688c9.218-5.313 21.015-2.188 26.328 7.03l19.297 33.36c5.312 9.219 2.187 21.016-7.032 26.328-9.218 5.313-21.015 2.188-26.328-7.031l-19.297-33.36a19.187 19.187 0 0 1 7.032-26.328ZM537.094 191.5a19.15 19.15 0 0 0 23.594 13.594l37.187-10c10.312-2.735 16.406-13.282 13.594-23.594a19.15 19.15 0 0 0-23.594-13.594l-37.187 10c-10.235 2.735-16.329 13.281-13.594 23.594Zm-10.313 86.641c-2.734 10.312 3.36 20.859 13.594 23.593l37.187 10c10.313 2.735 20.86-3.359 23.594-13.593 2.735-10.313-3.359-20.86-13.593-23.594l-37.188-10c-10.234-2.735-20.781 3.359-23.594 13.594ZM426.078.406c10.625 0 19.297 8.594 19.297 19.297V58.22c0 10.625-8.594 19.297-19.297 19.297-10.625 0-19.297-8.594-19.297-19.297V19.703c0-10.625 8.594-19.297 19.297-19.297Zm130.547 54.297c-7.5-7.5-19.687-7.5-27.266 0L502.094 81.97c-7.5 7.5-7.5 19.687 0 27.265 7.5 7.5 19.687 7.5 27.265 0l27.266-27.265c7.578-7.578 7.578-19.766 0-27.266Z" fill="#FFE902"/>
  <path d="M112.641 452.75c-1.719.156-3.36.312-5.079.391-47.265 2.656-86.718-38.829-86.718-86.719 0-47.891 38.828-86.719 86.718-86.719 3.282 0 6.563.156 9.766.547-.078-1.797-.078-3.594-.078-5.391 0-66.484 53.906-120.39 120.391-120.39 58.75 0 107.656 42.031 118.281 97.656a105.33 105.33 0 0 1 16.562-1.328c55.86 0 101.172 45.312 101.172 101.172-.156 35.703-18.594 67.109-46.562 85.078-15.782 10.156-34.532 16.641-54.688 16.015-2.734-.078-5.39-.234-8.047-.546-.859.078-1.797.078-2.656.078H112.641v.156Z" fill="#F2F2F2"/>
  <path d="M103.187 473.844c-25.312 0-49.453-9.766-68.671-27.969C12.719 425.25.219 396.266.219 366.422c0-55.703 42.734-101.719 97.11-106.797 7.655-70.547 67.577-125.703 140.155-125.703 61.25 0 114.844 39.531 133.75 96.328h1.094c67.188 0 121.797 54.609 121.797 121.719 0 41.64-20.859 79.922-55.859 102.422-20.703 13.359-43.828 20-66.485 19.296a127.315 127.315 0 0 1-7.812-.468c-.781 0-1.563.078-2.344.078H113.656c-1.64.156-3.281.312-4.922.39-1.875.079-3.672.157-5.547.157Zm4.297-173.516c-36.406 0-66.093 29.688-66.093 66.094 0 18.594 7.812 36.64 21.406 49.531 12.266 11.641 27.89 17.578 43.515 16.563 1.329-.078 2.735-.157 4.063-.313l2.187-.156h253.829c2.187.234 4.375.391 6.562.469 18.125.625 33.438-6.641 42.891-12.813 23.281-14.844 37.109-40.156 37.109-67.734 0-44.375-36.172-80.547-80.547-80.547-4.453 0-8.906.39-13.203 1.094l-19.844 3.281-3.75-19.766c-8.984-46.875-50.156-80.937-98.047-80.937-55.078 0-99.843 44.765-99.843 99.844 0 1.484 0 2.968.078 4.453l1.094 24.14-23.985-2.734a57.264 57.264 0 0 0-7.422-.469Z" fill="#F2F2F2"/>
</svg>